<?xml version="1.0" encoding="utf-8"?>
<!-- Generator: Adobe Illustrator 21.1.0, SVG Export Plug-In . SVG Version: 6.00 Build 0)  -->
<svg version="1.1" id="Layer_1" xmlns="http://www.w3.org/2000/svg" xmlns:xlink="http://www.w3.org/1999/xlink" x="0px" y="0px"
	 viewBox="0 0 267 74.8" style="enable-background:new 0 0 267 74.8;" xml:space="preserve">
<style type="text/css">
	.st0{fill-rule:evenodd;clip-rule:evenodd;fill:#FFCC00;}
</style>
<path class="st0" d="M60,37.5L41.3,25.4L23.5,38.1l-3.4-1.7l21.2-15l22.1,14.4v25H60V37.5z M17.2,34.5v22.8h36.6V40.6l3.3-2v22H13.9
	V32.8l27.9-19.1v4L17.2,34.5z M15.5,4h46.2c5.8,0,10.5,4.7,10.5,10.5v45.9c0,5.8-4.7,10.5-10.5,10.5H15.5C9.7,70.9,5,66.2,5,60.4
	V14.5C5,8.7,9.7,4,15.5,4z"/>
<path d="M258.4,67.6h1.2V52h-1.2V67.6z M244.3,53.2L244.3,53.2l3.4,9.1h-6.8L244.3,53.2z M237.5,67.6h1.4l1.6-4.2h7.6l1.6,4.2h1.4
	l-6-15.5h-1.6L237.5,67.6z M215.5,67.6h1.2V53.6l6.2,9.1l6.2-9v13.9h1.2V52h-1.5l-5.9,8.7L217,52h-1.5V67.6z M205.7,67.6h1.2V52
	h-1.2V67.6z M186.7,66.5V53.1h3c4.5,0,6.9,2.5,6.9,6.5c0,4.2-2.2,6.8-6.9,6.8H186.7z M185.5,67.6h4.2c5.5,0,8.2-3,8.2-7.9
	c0-4.7-2.8-7.6-8.2-7.6h-4.2V67.6z M165,67.6h1.2V53.9l9.3,13.7h1.4V52h-1.2v13.8L166.4,52H165V67.6z M146.4,67.6h10.5v-1.1h-9.3
	v-6.3h8.2v-1.1h-8.2v-6h9.1V52h-10.4V67.6z M128.1,60.1v-6.9h5.1c2.8,0,3.9,1.7,3.9,3.4c0,1.7-1.1,3.5-3.9,3.5H128.1z M126.9,67.6
	h1.2v-6.5h5.1h0.4l3.3,6.5h1.4l-3.5-6.6c2.5-0.6,3.5-2.6,3.5-4.4c0-2.2-1.4-4.5-5.1-4.5h-6.3V67.6z M109,60.1v-6.9h4.8
	c2.9,0,3.9,1.7,3.9,3.4c0,1.7-1,3.5-3.9,3.5H109z M107.8,67.6h1.2v-6.5h4.8c3.8,0,5.2-2.4,5.2-4.6c0-2.2-1.3-4.5-5.1-4.5h-6V67.6z
	 M89,66.3c1.2,0.8,3.2,1.6,5.5,1.6c3.7,0,5.4-1.8,5.4-4.2c0-6.1-9.4-2.9-9.4-7.8c0-1.7,1.4-3,3.9-3c1.8,0,3.3,0.5,4.4,1l0.5-1.1
	c-1.2-0.6-2.8-1.1-4.9-1.1c-3.2,0-5.2,1.8-5.2,4.1c0,6,9.4,3,9.4,7.8c0,1.8-1.3,3.1-4.1,3.1c-2,0-3.8-0.7-4.9-1.4L89,66.3z"/>
<path d="M233.4,12.6c-2.6,2.8-4.3,6.8-4.3,11.7c0,5.1,1.6,9.3,4.2,12.1c2.8,3,6.6,4.7,11,4.7c4.4,0,8.3-1.7,11-4.7
	c2.6-2.9,4.2-7,4.2-12.1c0-4.9-1.6-8.9-4.3-11.7c-2.8-3-6.6-4.6-10.9-4.6C240.1,8,236.2,9.6,233.4,12.6 M231,38.5
	c-3.2-3.4-5.1-8.2-5.1-14.2c0-5.7,2-10.4,5.2-13.7c3.4-3.5,8.1-5.4,13.3-5.4c5.2,0,10,2,13.3,5.4c3.2,3.3,5.2,8,5.2,13.7
	c0,6-1.9,10.8-5.1,14.2c-3.3,3.6-8,5.5-13.4,5.5C239,44,234.3,42,231,38.5z M209.7,43.4h-3.1V8.7h-14.1V5.8h31.3v2.9h-14.1
	L209.7,43.4L209.7,43.4z M168.2,43c-2.5-0.7-4.6-1.7-6.2-2.8l-0.1,0l1.6-2.6l0.1,0.1c1.4,1,3.3,1.9,5.5,2.5c1.9,0.5,4,0.9,6.2,0.9
	c3.2,0,5.6-0.7,7.2-1.9c1.8-1.3,2.6-3.2,2.6-5.4c0-5.4-5-6.6-10.3-7.9c-6-1.5-12.3-3-12.3-10.8c0-2.9,1.2-5.4,3.5-7.2
	c2.1-1.7,5.2-2.7,9-2.7c2.5,0,4.8,0.3,6.7,0.8c2,0.5,3.7,1.2,5.2,1.9l0.1,0l-1.3,2.7l-0.1,0c-1.3-0.7-2.9-1.3-4.6-1.8
	c-1.8-0.5-3.7-0.8-5.9-0.8c-2.8,0-5.1,0.7-6.7,1.9c-1.7,1.3-2.6,3-2.6,5.1c0,5.4,5,6.7,10.3,7.9c6,1.4,12.3,3,12.3,10.8
	c0,3-1.2,5.7-3.5,7.5c-2.2,1.7-5.4,2.7-9.6,2.7C172.8,44,170.3,43.6,168.2,43z M129.4,40.1c-2.4-2.4-3.9-5.9-3.9-10.5V5.8h3.2v23.8
	c0,3.6,1.2,6.4,3,8.4c2,2.1,5,3.2,8.2,3.2c3.3,0,6.2-1.1,8.2-3.2c1.9-1.9,3.1-4.8,3.1-8.4V5.8h3.2v23.8c0,4.6-1.5,8.1-3.9,10.5
	C148,42.7,144.2,44,140,44C135.8,44,132,42.7,129.4,40.1z M147.5,8.5h-15.2V6h15.3L147.5,8.5L147.5,8.5z M93.1,8.6v14.3h11.1
	c2.9,0,5-0.7,6.5-1.9c1.6-1.4,2.4-3.3,2.4-5.4c0-2-0.8-3.8-2.4-5.1c-1.5-1.1-3.6-1.8-6.5-1.8H93.1z M93.1,25.6v15h12.5
	c2.9,0,5.2-0.7,6.7-2c1.5-1.3,2.3-3.2,2.3-5.8c0-2.3-0.9-4-2.4-5.3c-1.6-1.3-3.9-2-6.6-2H93.1z M105.6,43.4H89.9V5.8h14.4
	c3.9,0,6.8,1,8.8,2.5c2.2,1.8,3.3,4.3,3.3,7.1c0,2.2-0.6,4-1.7,5.5c-1.1,1.5-2.7,2.5-4.5,3.1c2.3,0.6,4.3,1.6,5.7,3.2
	c1.3,1.5,2.1,3.4,2.1,5.8c0,3.3-1.1,5.9-3.2,7.7C112.6,42.4,109.5,43.4,105.6,43.4z"/>
</svg>
